<svg width="27" height="27" viewBox="0 0 27 27" fill="none" xmlns="http://www.w3.org/2000/svg">
<path d="M11.1189 2.54106C11.6921 0.00344856 15.3079 0.00344918 15.8811 2.54106V2.54106C16.2526 4.18569 18.1399 4.96743 19.5655 4.06719V4.06719C21.7652 2.67815 24.3218 5.23485 22.9328 7.43452V7.43452C22.0326 8.86014 22.8143 10.7474 24.4589 11.1189V11.1189C26.9966 11.6921 26.9965 15.3079 24.4589 15.8811V15.8811C22.8143 16.2526 22.0326 18.1399 22.9328 19.5655V19.5655C24.3218 21.7652 21.7652 24.3218 19.5655 22.9328V22.9328C18.1399 22.0326 16.2526 22.8143 15.8811 24.4589V24.4589C15.3079 26.9965 11.6921 26.9965 11.1189 24.4589V24.4589C10.7474 22.8143 8.86014 22.0326 7.43452 22.9328V22.9328C5.23484 24.3218 2.67815 21.7652 4.06719 19.5655V19.5655C4.96743 18.1399 4.18568 16.2526 2.54106 15.8811V15.8811C0.00344877 15.3079 0.00344835 11.6921 2.54106 11.1189V11.1189C4.18568 10.7474 4.96743 8.86014 4.06719 7.43452V7.43452C2.67815 5.23484 5.23484 2.67815 7.43452 4.06719V4.06719C8.86014 4.96743 10.7474 4.18569 11.1189 2.54106V2.54106Z" fill="#21BBB1"/>
</svg>
