<svg width="120" height="122" viewBox="0 0 120 122" fill="none" xmlns="http://www.w3.org/2000/svg">
<path d="M0 122C8.01063 122 15.9428 120.422 23.3437 117.357C30.7446 114.291 37.4691 109.798 43.1335 104.134C48.7979 98.4691 53.2911 91.7445 56.3567 84.3437C59.4222 76.9428 61 69.0106 61 61C61 52.9894 59.4222 45.0572 56.3567 37.6563C53.2911 30.2554 48.7979 23.5309 43.1335 17.8665C37.4691 12.2021 30.7445 7.70888 23.3437 4.64335C15.9428 1.57781 8.01063 -7.00312e-07 -5.33279e-06 0L0 61L0 122Z" fill="#49ACF6"/>
<path d="M59 122C67.0106 122 74.9428 120.422 82.3437 117.357C89.7446 114.291 96.4691 109.798 102.134 104.134C107.798 98.4691 112.291 91.7445 115.357 84.3437C118.422 76.9428 120 69.0106 120 61C120 52.9894 118.422 45.0572 115.357 37.6563C112.291 30.2554 107.798 23.5309 102.134 17.8665C96.4691 12.2021 89.7445 7.70888 82.3437 4.64335C74.9428 1.57781 67.0106 -7.00312e-07 59 0L59 61L59 122Z" fill="#49ACF6"/>
</svg>
