<svg width="50" height="50" viewBox="0 0 50 50" fill="none" xmlns="http://www.w3.org/2000/svg">
<path d="M12 10.5C12 12.2728 12.3492 14.0283 13.0276 15.6662C13.7061 17.3041 14.7005 18.7924 15.9541 20.0459C17.2076 21.2995 18.6959 22.2939 20.3338 22.9724C21.9717 23.6508 23.7272 24 25.5 24C27.2728 24 29.0283 23.6508 30.6662 22.9724C32.3041 22.2939 33.7924 21.2995 35.0459 20.0459C36.2995 18.7923 37.2939 17.3041 37.9724 15.6662C38.6508 14.0283 39 12.2728 39 10.5L25.5 10.5L12 10.5Z" fill="#79BFF3"/>
<path d="M39 38.5C39 36.7272 38.6508 34.9717 37.9724 33.3338C37.2939 31.6959 36.2995 30.2076 35.0459 28.9541C33.7924 27.7005 32.3041 26.7061 30.6662 26.0276C29.0283 25.3492 27.2728 25 25.5 25C23.7272 25 21.9717 25.3492 20.3338 26.0276C18.6959 26.7061 17.2076 27.7005 15.9541 28.9541C14.7005 30.2077 13.7061 31.6959 13.0276 33.3338C12.3492 34.9717 12 36.7272 12 38.5L25.5 38.5H39Z" fill="#79BFF3"/>
</svg>
