<svg width="50" height="50" viewBox="0 0 50 50" fill="none" xmlns="http://www.w3.org/2000/svg">
<path d="M23.5241 9.61267C23.8772 7.35873 27.1228 7.35873 27.4759 9.61267L27.5202 9.89573C27.7888 11.6098 29.963 12.1924 31.0526 10.8422L31.2325 10.6192C32.6653 8.84383 35.476 10.4666 34.6548 12.5951L34.5517 12.8625C33.9272 14.4811 35.5189 16.0728 37.1375 15.4483L37.4049 15.3452C39.5334 14.524 41.1562 17.3348 39.3807 18.7675L39.1578 18.9474C37.8076 20.037 38.3902 22.2112 40.1043 22.4798L40.3873 22.5241C42.6413 22.8772 42.6413 26.1228 40.3873 26.4759L40.1043 26.5202C38.3902 26.7888 37.8076 28.963 39.1578 30.0526L39.3808 30.2325C41.1562 31.6653 39.5334 34.476 37.4049 33.6548L37.1375 33.5517C35.5189 32.9272 33.9272 34.5189 34.5517 36.1375L34.6548 36.4049C35.476 38.5334 32.6653 40.1562 31.2325 38.3808L31.0526 38.1578C29.963 36.8076 27.7888 37.3902 27.5202 39.1043L27.4759 39.3873C27.1228 41.6413 23.8772 41.6413 23.5241 39.3873L23.4798 39.1043C23.2112 37.3902 21.037 36.8076 19.9474 38.1578L19.7675 38.3808C18.3348 40.1562 15.524 38.5334 16.3452 36.4048L16.4483 36.1375C17.0728 34.5189 15.4811 32.9272 13.8625 33.5517L13.5951 33.6548C11.4666 34.476 9.84383 31.6653 11.6192 30.2325L11.8422 30.0526C13.1924 28.963 12.6098 26.7888 10.8957 26.5202L10.6127 26.4759C8.35873 26.1228 8.35873 22.8772 10.6127 22.5241L10.8957 22.4798C12.6098 22.2112 13.1924 20.037 11.8422 18.9474L11.6192 18.7675C9.84383 17.3348 11.4666 14.524 13.5951 15.3452L13.8625 15.4483C15.4811 16.0728 17.0728 14.4811 16.4483 12.8625L16.3452 12.5951C15.524 10.4666 18.3348 8.84383 19.7675 10.6192L19.9474 10.8422C21.037 12.1924 23.2112 11.6098 23.4798 9.89573L23.5241 9.61267Z" fill="#FFB58A"/>
</svg>
