<svg width="132" height="132" viewBox="0 0 132 132" fill="none" xmlns="http://www.w3.org/2000/svg">
<path d="M65.5123 1.15912C65.6297 0.639341 66.3703 0.639344 66.4877 1.15912L75.6375 41.6657C75.7136 42.0026 76.1002 42.1627 76.3922 41.9783L111.505 19.8057C111.955 19.5212 112.479 20.0449 112.194 20.4954L90.0217 55.6078C89.8373 55.8998 89.9974 56.2864 90.3343 56.3625L130.841 65.5123C131.361 65.6297 131.361 66.3703 130.841 66.4877L90.3343 75.6375C89.9974 75.7136 89.8373 76.1002 90.0217 76.3922L112.194 111.505C112.479 111.955 111.955 112.479 111.505 112.194L76.3922 90.0217C76.1002 89.8373 75.7136 89.9974 75.6375 90.3343L66.4877 130.841C66.3703 131.361 65.6297 131.361 65.5123 130.841L56.3625 90.3343C56.2864 89.9974 55.8998 89.8373 55.6078 90.0217L20.4954 112.194C20.0449 112.479 19.5212 111.955 19.8057 111.505L41.9783 76.3922C42.1627 76.1002 42.0026 75.7136 41.6657 75.6375L1.15912 66.4877C0.639341 66.3703 0.639344 65.6297 1.15912 65.5123L41.6657 56.3625C42.0026 56.2864 42.1627 55.8998 41.9783 55.6078L19.8057 20.4954C19.5212 20.0449 20.0449 19.5212 20.4954 19.8057L55.6078 41.9783C55.8998 42.1627 56.2864 42.0026 56.3625 41.6657L65.5123 1.15912Z" fill="#FF7676"/>
</svg>
