<svg width="367" height="355" viewBox="0 0 367 355" fill="none" xmlns="http://www.w3.org/2000/svg">
<path d="M3.31992 175.96C3.31992 143.251 0.648379 109.486 10.7454 77.8922C24.6008 34.5384 62.0946 6.70653 107.021 3.63701C201.527 -2.8199 288.022 39.9808 333.884 124.238C367.041 185.156 381.333 270.598 325.818 323.19C302.684 345.107 269.03 350.1 238.504 350.972C210.006 351.786 178.154 355.189 153.111 339.066C109.713 311.125 89.0132 259.647 88.5854 210.015C88.3033 177.297 91.9306 152.687 111.63 125.774C126.745 105.123 149.464 80.3913 175.003 73.5393C208.256 64.6177 247.676 65.7653 264.749 99.9127C274.183 118.779 278.177 151.909 270.639 171.863C262.82 192.559 246.961 225.264 226.854 235.876C215.625 241.802 193.024 248.1 181.916 239.461C164.024 225.545 160.024 202.623 160.024 181.081C160.024 168.364 164.336 159.829 178.46 159.829C188.056 159.829 192.119 164.555 200.224 166.87C214.065 170.825 209.284 205.624 206.113 215.136" stroke="#9747FF" stroke-width="6" stroke-linecap="round"/>
</svg>
