<svg width="432" height="429" viewBox="0 0 432 429" fill="none" xmlns="http://www.w3.org/2000/svg">
<path d="M3 282.926C26.8879 282.926 43.6354 277.817 63.2967 262.983C114.404 224.424 151.703 166.785 172.907 106.802C183.821 75.9282 189.194 42.3379 188.597 9.55349C188.379 -2.44438 180.507 4.52142 177.054 10.7859C147.991 63.5118 133.618 127.829 121.24 186.125C106.957 253.392 103.858 325.749 79.6598 390.482C78.5829 393.363 58.3007 434.751 57.5809 424.317C55.011 387.068 74.6146 348.636 93.7813 318.106C97.8878 311.565 113.907 283.798 126.059 289.872C144.577 299.128 143.586 339.758 145.112 356.535C146.454 371.287 140.746 402.136 152.285 414.01C165.389 427.496 180.562 404.813 185.459 394.515C196.729 370.818 202.719 343.71 202.719 317.545C202.719 308.263 199.683 291.619 190.166 305.557C176.989 324.857 176.194 353.821 178.847 376.365C181.168 396.089 203.613 407.791 221.323 397.652C239.187 387.426 249.505 364.998 256.851 346.899C268.057 319.295 275.187 289.903 280.948 260.742C285.847 235.943 289.587 210.909 292.379 185.789C293.764 173.334 296.502 159.851 295.405 147.248C294.188 133.248 287.192 163.412 287 164.166C271.764 224.048 266.451 286.844 265.369 348.468C265.121 362.61 259.873 400.031 278.482 406.728C306.086 416.661 326.314 361.321 332.951 344.547C353.677 292.162 356.038 237.391 356.038 181.868C356.038 159.066 348.346 169.361 343.934 185.453C333.548 223.336 326.177 263.769 325.778 303.093C325.536 326.886 320.764 360.963 342.926 377.374C371.471 398.511 410.217 307.247 408.378 284.27C407.16 269.052 396.149 286.323 394.368 291.665C385.816 317.314 377.662 355.818 386.747 382.415C394.799 405.986 419.19 390.303 424.293 374.237C431.857 350.416 430.076 321.808 420.594 299.059" stroke="#9747FF" stroke-width="6" stroke-linecap="round"/>
</svg>
